<svg width="60" height="60" viewBox="0 0 60 60" fill="none" xmlns="http://www.w3.org/2000/svg">
<path d="M29.9986 56C29.8102 56 29.6204 55.9746 29.4335 55.9253C29.2511 55.876 29.0777 55.8029 28.9178 55.7118C28.9088 55.7058 28.8984 55.6998 28.8894 55.6953L1.0928 39.8241C0.527748 39.5015 0.137594 38.943 0.0299658 38.3023C-0.0776629 37.6616 0.107698 37.0059 0.536717 36.5176L28.3453 4.76466C28.3841 4.71986 28.4245 4.67505 28.4678 4.63324C28.6457 4.45551 28.849 4.31363 29.0658 4.21058C29.1151 4.18669 29.1644 4.16578 29.2153 4.14636C29.3872 4.07915 29.5695 4.03435 29.7609 4.01344C29.8401 4.00448 29.9193 4 29.9986 4C29.9986 4 29.9986 4 30.0001 4C30.0823 4 30.166 4.00448 30.2482 4.01344C30.2482 4.01344 30.2482 4.01344 30.2497 4.01344C30.4171 4.03286 30.5786 4.07169 30.7325 4.12695C30.7983 4.15084 30.8626 4.17772 30.9269 4.20759C31.1481 4.31214 31.3529 4.45551 31.5338 4.63622C31.5756 4.67804 31.616 4.72135 31.6534 4.76616L59.4634 36.519C59.8909 37.0074 60.0778 37.663 59.9702 38.3037C59.8625 38.9445 59.4724 39.503 58.9073 39.8256L31.1092 55.6953C31.1092 55.6953 31.0988 55.7013 31.0928 55.7043C30.9254 55.8014 30.7445 55.8775 30.5532 55.9283C30.3708 55.9761 30.1854 56 30.0001 56H29.9956H29.9986ZM32.1676 11.9274V50.1022L54.4572 37.3778L32.1676 11.9274ZM5.54444 37.3778L27.8325 50.1022V11.9274L5.54444 37.3778Z" fill="#FDF3E7"/>
</svg>
